<?xml version="1.0" encoding="iso-8859-1"?>
<!-- Generator: Adobe Illustrator 19.0.0, SVG Export Plug-In . SVG Version: 6.00 Build 0)  -->
<svg version="1.1" id="Capa_1" xmlns="http://www.w3.org/2000/svg" xmlns:xlink="http://www.w3.org/1999/xlink" x="0px" y="0px"
	 viewBox="0 0 512 512" style="enable-background:new 0 0 512 512;" xml:space="preserve">
<path style="fill:#FFC850;" d="M199.888,424.339v64.129c0,8.854,7.178,16.032,16.032,16.032h80.161
	c8.854,0,16.032-7.178,16.032-16.032v-64.129H199.888z"/>
<path style="fill:#FEA82F;" d="M256.001,448.387h56.113v-24.048H199.888v64.129c0,8.854,7.178,16.032,16.032,16.032h24.048v-40.081
	C239.969,455.565,247.147,448.387,256.001,448.387z"/>
<path style="fill:#FFFFFF;" d="M143.775,15.516v20.488c0,7.714,0.327,15.425,0.982,23.112l29.834,350.55
	c0.706,8.297,7.647,14.673,15.975,14.673h130.871c8.327,0,15.268-6.375,15.975-14.673l29.834-350.55
	c0.654-7.687,0.982-15.398,0.982-23.112V15.516c0-4.427-3.589-8.016-8.016-8.016H151.791C147.364,7.5,143.775,11.089,143.775,15.516
	z"/>
<path style="fill:#ABFFDB;" d="M368.227,15.516c0-4.427-3.589-8.016-8.016-8.016h-208.42c-4.427,0-8.016,3.589-8.016,8.016V47.58
	h0.247c0.163,3.85,0.409,7.695,0.736,11.535l29.833,350.55c0.706,8.298,7.647,14.673,15.975,14.673h130.871
	c8.327,0,15.268-6.376,15.975-14.673l0.798-9.375H230.646c-8.327,0-15.268-6.376-15.975-14.673L185.903,47.581h182.324V15.516z"/>
<path style="fill:#FFC850;" d="M256.001,111.71c-43.046,0-80.701,22.693-101.943,56.695l12.203,143.382
	c22.023,24.737,54.014,40.407,89.74,40.407s67.717-15.67,89.74-40.407l12.203-143.382
	C336.702,134.403,299.047,111.71,256.001,111.71z"/>
<path style="fill:#FEA82F;" d="M154.059,168.404l12.203,143.383c12.204,13.708,27.542,24.484,44.807,31.5l-18.175-213.562
	C177.186,139.48,163.86,152.715,154.059,168.404z"/>
<circle style="fill:#FFFFFF;" cx="256.001" cy="231.95" r="64.13"/>
<circle style="fill:#FFC850;" cx="256.001" cy="231.95" r="24.05"/>
<path style="fill:#FFF0BE;" d="M204.879,270.555l-5.793-68.077c-4.583,8.831-7.214,18.838-7.214,29.474
	C191.872,246.465,196.751,259.807,204.879,270.555z"/>
<path style="fill:#474D54;" d="M360.211,0h-208.42c-8.556,0-15.516,6.96-15.516,15.516v20.488c0,7.896,0.339,15.887,1.008,23.748
	l29.834,350.55c1.045,12.278,11.125,21.537,23.448,21.537h1.823v56.629c0,12.976,10.557,23.532,23.532,23.532h80.161
	c12.976,0,23.532-10.556,23.532-23.532v-56.629h1.823c12.323,0,22.403-9.259,23.448-21.537l29.834-350.55
	c0.669-7.861,1.008-15.852,1.008-23.748V15.516C375.727,6.96,368.766,0,360.211,0z M207.388,464.935v-33.097h97.226v33.097v15v8.532
	c0,4.705-3.828,8.532-8.532,8.532H215.92c-4.705,0-8.532-3.828-8.532-8.532v-8.532L207.388,464.935L207.388,464.935z
	 M173.517,308.602l-11.768-138.28l-1.9-22.33l-7.618-89.513c-0.096-1.129-0.171-2.265-0.253-3.399l-0.658-15
	c-0.021-1.36-0.044-2.721-0.044-4.077V15.516c0-0.285,0.232-0.516,0.516-0.516h208.419c0.285,0,0.516,0.231,0.516,0.516v20.488
	c0,1.356-0.022,2.716-0.044,4.077l-0.658,15c-0.082,1.134-0.157,2.27-0.253,3.399l-7.618,89.513l-1.9,22.33l-11.77,138.287
	l-1.897,22.294l-6.649,78.126c-0.378,4.451-4.034,7.809-8.502,7.809H190.565c-4.468,0-8.123-3.357-8.501-7.809l-6.649-78.122
	L173.517,308.602z"/>
<g>
	<path style="fill:#FF8031;" d="M256.001,183.339c4.142,0,7.5-3.358,7.5-7.5v-16.032c0-4.143-3.358-7.5-7.5-7.5s-7.5,3.357-7.5,7.5
		v16.032C248.501,179.98,251.859,183.339,256.001,183.339z"/>
	<path style="fill:#FF8031;" d="M256.001,280.565c-4.142,0-7.5,3.358-7.5,7.5v16.032c0,4.142,3.358,7.5,7.5,7.5s7.5-3.358,7.5-7.5
		v-16.032C263.501,283.922,260.143,280.565,256.001,280.565z"/>
	<path style="fill:#FF8031;" d="M304.603,211.396c1.272,0,2.562-0.324,3.743-1.006l13.884-8.017
		c3.587-2.071,4.816-6.658,2.745-10.245c-2.071-3.588-6.658-4.815-10.245-2.745l-13.884,8.017
		c-3.587,2.071-4.816,6.658-2.745,10.245C299.49,210.052,302.011,211.396,304.603,211.396z"/>
	<path style="fill:#FF8031;" d="M213.901,256.258c-2.071-3.587-6.658-4.816-10.245-2.745l-13.884,8.017
		c-3.587,2.071-4.816,6.658-2.745,10.245c1.389,2.406,3.91,3.751,6.502,3.751c1.273,0,2.562-0.324,3.743-1.006l13.884-8.017
		C214.743,264.432,215.972,259.845,213.901,256.258z"/>
	<path style="fill:#FF8031;" d="M189.771,202.374l13.884,8.017c1.181,0.682,2.471,1.006,3.743,1.006
		c2.592,0,5.113-1.345,6.502-3.751c2.071-3.587,0.842-8.174-2.745-10.245l-13.884-8.017c-3.588-2.071-8.174-0.842-10.245,2.745
		C184.955,195.716,186.184,200.303,189.771,202.374z"/>
	<path style="fill:#FF8031;" d="M300.846,266.503l13.884,8.017c1.181,0.682,2.471,1.006,3.743,1.006
		c2.592,0,5.113-1.345,6.502-3.751c2.071-3.587,0.842-8.174-2.745-10.245l-13.884-8.017c-3.587-2.072-8.174-0.842-10.245,2.745
		C296.03,259.845,297.259,264.432,300.846,266.503z"/>
</g>
<g>
</g>
<g>
</g>
<g>
</g>
<g>
</g>
<g>
</g>
<g>
</g>
<g>
</g>
<g>
</g>
<g>
</g>
<g>
</g>
<g>
</g>
<g>
</g>
<g>
</g>
<g>
</g>
<g>
</g>
</svg>
